<svg width="27" height="27" viewBox="0 0 27 27" fill="none" xmlns="http://www.w3.org/2000/svg">
<g clip-path="url(#clip0_71_194)">
<path d="M8.57834 6.20039L9.55922 7.60201C8.36727 8.43646 7.4724 9.6292 7.0046 11.007C6.53681 12.3847 6.52045 13.8758 6.95792 15.2634C7.39539 16.6511 8.26389 17.8632 9.43725 18.7236C10.6106 19.584 12.0277 20.0479 13.4828 20.0479C14.9378 20.0479 16.3549 19.584 17.5283 18.7236C18.7016 17.8632 19.5701 16.6511 20.0076 15.2634C20.4451 13.8758 20.4287 12.3847 19.9609 11.007C19.4931 9.6292 18.5982 8.43646 17.4063 7.60201L18.3872 6.20039C19.5142 6.98836 20.4344 8.03683 21.0694 9.25666C21.7044 10.4765 22.0355 11.8316 22.0345 13.2068C22.0345 17.9299 18.2059 21.7585 13.4828 21.7585C8.75964 21.7585 4.93103 17.9299 4.93103 13.2068C4.93004 11.8316 5.26112 10.4765 5.89612 9.25666C6.53112 8.03683 7.45127 6.98836 8.57834 6.20039ZM12.6276 13.2068V4.65509H14.3379V13.2068H12.6276Z" fill="white"/>
</g>
<defs>
<clipPath id="clip0_71_194">
<rect width="25.6552" height="25.6552" fill="white" transform="translate(0.655273 0.379272)"/>
</clipPath>
</defs>
</svg>
