<svg width="27" height="26" viewBox="0 0 27 26" fill="none" xmlns="http://www.w3.org/2000/svg">
<path d="M20.0689 10.8966C20.0689 9.19553 19.3932 7.56416 18.1904 6.36134C16.9875 5.15852 15.3562 4.48278 13.6551 4.48278C11.9541 4.48278 10.3227 5.15852 9.11988 6.36134C7.91706 7.56416 7.24132 9.19553 7.24132 10.8966V19.4483H20.0689V10.8966ZM22.2068 20.1613L22.6344 20.7311C22.694 20.8105 22.7302 20.9049 22.7392 21.0037C22.7481 21.1026 22.7293 21.202 22.6849 21.2908C22.6405 21.3796 22.5723 21.4542 22.4878 21.5064C22.4034 21.5586 22.3061 21.5862 22.2068 21.5862H5.10339C5.00413 21.5862 4.90683 21.5586 4.8224 21.5064C4.73796 21.4542 4.66973 21.3796 4.62534 21.2908C4.58095 21.202 4.56215 21.1026 4.57107 21.0037C4.57998 20.9049 4.61625 20.8105 4.67581 20.7311L5.10339 20.1613V10.8966C5.10339 8.62851 6.00437 6.45335 7.60813 4.84959C9.21189 3.24583 11.3871 2.34485 13.6551 2.34485C15.9232 2.34485 18.0983 3.24583 19.7021 4.84959C21.3059 6.45335 22.2068 8.62851 22.2068 10.8966V20.1613ZM10.9827 22.6552H16.3275C16.3275 23.364 16.046 24.0437 15.5448 24.5449C15.0436 25.046 14.3639 25.3276 13.6551 25.3276C12.9463 25.3276 12.2666 25.046 11.7654 24.5449C11.2643 24.0437 10.9827 23.364 10.9827 22.6552Z" fill="black"/>
<circle cx="20.0689" cy="6.62071" r="4.27586" fill="#FA0E0E"/>
</svg>
